P3
3 7
255
10  10  10  10  10  10  10  10  10 
10  10  10  10  10  10  10  10  10
10  10  10  10  10  10  10  10  10
10  10  10  20  20  20  10  10  10
10  10  10  50  50  50  10  10  10
10  10  10  10  10  10  10  10  10
10  10  10  10  10  10  10  10  10
