P3
48 24
255
130 130 130
27 27 27
60 60 60
63 63 63
83 83 83
66 66 66
81 81 81
134 134 134
155 155 155
157 157 157
151 151 151
152 152 152
148 148 148
144 144 144
137 137 137
128 128 128
120 120 120
113 113 113
108 108 108
108 108 108
101 101 101
97 97 97
90 90 90
85 85 85
77 77 77
69 69 69
52 52 52
36 36 36
28 28 28
29 29 29
31 31 31
36 36 36
58 58 58
66 66 66
61 61 61
47 47 47
13 13 13
13 13 13
26 26 26
52 52 52
55 55 55
45 45 45
33 33 33
20 20 20
26 26 26
29 29 29
30 30 30
32 32 32
172 172 172
65 65 65
41 41 41
55 55 55
39 39 39
56 56 56
91 91 91
141 141 141
166 166 166
160 160 160
154 154 154
152 152 152
152 152 152
146 146 146
138 138 138
130 130 130
121 121 121
114 114 114
110 110 110
108 108 108
105 105 105
137 137 137
178 178 178
204 204 204
209 209 209
211 211 211
225 225 225
223 223 223
225 225 225
229 229 229
176 176 176
51 51 51
197 197 197
201 201 201
207 207 207
203 203 203
36 36 36
12 12 12
36 36 36
64 64 64
75 75 75
65 65 65
36 36 36
20 20 20
24 24 24
29 29 29
30 30 30
32 32 32
122 122 122
178 178 178
28 28 28
27 27 27
31 31 31
56 56 56
103 103 103
161 161 161
174 174 174
165 165 165
157 157 157
152 152 152
153 153 153
147 147 147
138 138 138
133 133 133
123 123 123
121 121 121
191 191 191
198 198 198
196 196 196
193 193 193
190 190 190
203 203 203
216 216 216
221 221 221
188 188 188
175 175 175
205 205 205
210 210 210
187 187 187
167 167 167
151 151 151
101 101 101
119 119 119
194 194 194
197 197 197
91 91 91
44 44 44
69 69 69
89 89 89
88 88 88
55 55 55
29 29 29
22 22 22
32 32 32
62 62 62
84 84 84
88 88 88
199 199 199
134 134 134
27 27 27
33 33 33
66 66 66
127 127 127
175 175 175
175 175 175
166 166 166
159 159 159
154 154 154
152 152 152
146 146 146
189 189 189
222 222 222
224 224 224
219 219 219
152 152 152
171 171 171
168 168 168
164 164 164
173 173 173
190 190 190
197 197 197
224 224 224
195 195 195
190 190 190
187 187 187
189 189 189
196 196 196
185 185 185
168 168 168
110 110 110
31 31 31
56 56 56
190 190 190
218 218 218
48 48 48
67 67 67
86 86 86
88 88 88
74 74 74
73 73 73
86 86 86
106 106 106
124 124 124
138 138 138
141 141 141
115 115 115
177 177 177
123 123 123
46 46 46
116 116 116
167 167 167
178 178 178
175 175 175
166 166 166
158 158 158
153 153 153
152 152 152
150 150 150
158 158 158
166 166 166
152 152 152
68 68 68
58 58 58
117 117 117
139 139 139
153 153 153
160 160 160
180 180 180
166 166 166
196 196 196
163 163 163
159 159 159
165 165 165
181 181 181
179 179 179
193 193 193
187 187 187
157 157 157
53 53 53
17 17 17
49 49 49
143 143 143
215 215 215
132 132 132
116 116 116
128 128 128
132 132 132
133 133 133
142 142 142
154 154 154
167 167 167
177 177 177
31 31 31
73 73 73
86 86 86
150 150 150
168 168 168
151 151 151
175 175 175
175 175 175
174 174 174
165 165 165
158 158 158
153 153 153
152 152 152
145 145 145
147 147 147
162 162 162
151 151 151
18 18 18
75 75 75
110 110 110
166 166 166
164 164 164
164 164 164
171 171 171
150 150 150
182 182 182
174 174 174
145 145 145
168 168 168
164 164 164
174 174 174
195 195 195
188 188 188
200 200 200
101 101 101
48 48 48
29 29 29
50 50 50
252 252 252
190 190 190
198 198 198
165 165 165
168 168 168
171 171 171
176 176 176
184 184 184
193 193 193
197 197 197
16 16 16
31 31 31
81 81 81
94 94 94
160 160 160
168 168 168
172 172 172
172 172 172
170 170 170
163 163 163
161 161 161
161 161 161
127 127 127
133 133 133
152 152 152
164 164 164
31 31 31
36 36 36
86 86 86
137 137 137
164 164 164
163 163 163
165 165 165
154 154 154
165 165 165
172 172 172
152 152 152
126 126 126
149 149 149
160 160 160
166 166 166
177 177 177
190 190 190
183 183 183
135 135 135
49 49 49
32 32 32
19 19 19
163 163 163
194 194 194
176 176 176
189 189 189
192 192 192
194 194 194
197 197 197
199 199 199
202 202 202
204 204 204
33 33 33
9 9 9
46 46 46
108 108 108
121 121 121
162 162 162
174 174 174
178 178 178
178 178 178
178 178 178
182 182 182
139 139 139
123 123 123
125 125 125
163 163 163
65 65 65
17 17 17
56 56 56
92 92 92
163 163 163
164 164 164
167 167 167
146 146 146
164 164 164
175 175 175
167 167 167
125 125 125
126 126 126
143 143 143
137 137 137
128 128 128
174 174 174
135 135 135
162 162 162
212 212 212
94 94 94
32 32 32
51 51 51
148 148 148
240 240 240
182 182 182
201 201 201
200 200 200
201 201 201
201 201 201
204 204 204
206 206 206
209 209 209
39 39 39
18 18 18
9 9 9
38 38 38
120 120 120
90 90 90
139 139 139
188 188 188
193 193 193
196 196 196
149 149 149
113 113 113
119 119 119
148 148 148
168 168 168
24 24 24
17 17 17
65 65 65
100 100 100
164 164 164
176 176 176
175 175 175
125 125 125
97 97 97
131 131 131
167 167 167
130 130 130
116 116 116
122 122 122
152 152 152
137 137 137
144 144 144
117 117 117
58 58 58
160 160 160
176 176 176
119 119 119
176 176 176
203 203 203
222 222 222
200 200 200
201 201 201
202 202 202
203 203 203
205 205 205
207 207 207
210 210 210
213 213 213
54 54 54
22 22 22
14 14 14
8 8 8
45 45 45
85 85 85
71 71 71
199 199 199
203 203 203
210 210 210
121 121 121
108 108 108
119 119 119
138 138 138
135 135 135
22 22 22
26 26 26
65 65 65
120 120 120
176 176 176
168 168 168
157 157 157
107 107 107
36 36 36
72 72 72
110 110 110
129 129 129
140 140 140
115 115 115
148 148 148
118 118 118
121 121 121
62 62 62
7 7 7
109 109 109
138 138 138
206 206 206
206 206 206
204 204 204
132 132 132
201 201 201
201 201 201
203 203 203
205 205 205
206 206 206
209 209 209
212 212 212
214 214 214
35 35 35
80 80 80
60 60 60
16 16 16
23 23 23
130 130 130
116 116 116
92 92 92
197 197 197
142 142 142
91 91 91
84 84 84
118 118 118
131 131 131
40 40 40
41 41 41
46 46 46
64 64 64
149 149 149
132 132 132
73 73 73
3 3 3
18 18 18
3 3 3
14 14 14
57 57 57
101 101 101
112 112 112
116 116 116
129 129 129
82 82 82
74 74 74
32 32 32
28 28 28
38 38 38
180 180 180
195 195 195
201 201 201
203 203 203
195 195 195
204 204 204
202 202 202
201 201 201
200 200 200
198 198 198
196 196 196
194 194 194
191 191 191
40 40 40
51 51 51
152 152 152
43 43 43
42 42 42
117 117 117
189 189 189
37 37 37
120 120 120
175 175 175
59 59 59
63 63 63
115 115 115
137 137 137
119 119 119
69 69 69
50 50 50
70 70 70
149 149 149
141 141 141
48 48 48
6 6 6
28 28 28
1 1 1
27 27 27
59 59 59
102 102 102
121 121 121
142 142 142
150 150 150
171 171 171
177 177 177
181 181 181
68 68 68
166 166 166
185 185 185
161 161 161
170 170 170
179 179 179
185 185 185
185 185 185
182 182 182
176 176 176
171 171 171
165 165 165
159 159 159
151 151 151
142 142 142
93 93 93
52 52 52
50 50 50
127 127 127
40 40 40
109 109 109
122 122 122
201 201 201
29 29 29
38 38 38
58 58 58
100 100 100
117 117 117
89 89 89
220 220 220
122 122 122
51 51 51
57 57 57
127 127 127
148 148 148
141 141 141
63 63 63
27 27 27
40 40 40
112 112 112
139 139 139
137 137 137
159 159 159
167 167 167
145 145 145
167 167 167
157 157 157
174 174 174
151 151 151
171 171 171
167 167 167
126 126 126
129 129 129
146 146 146
151 151 151
149 149 149
142 142 142
132 132 132
122 122 122
114 114 114
108 108 108
100 100 100
94 94 94
115 115 115
34 34 34
53 53 53
66 66 66
94 94 94
112 112 112
99 99 99
119 119 119
149 149 149
64 64 64
204 204 204
102 102 102
95 95 95
191 191 191
220 220 220
113 113 113
74 74 74
61 61 61
101 101 101
159 159 159
146 146 146
139 139 139
111 111 111
125 125 125
137 137 137
133 133 133
64 64 64
119 119 119
123 123 123
111 111 111
175 175 175
130 130 130
117 117 117
90 90 90
172 172 172
129 129 129
128 128 128
124 124 124
114 114 114
108 108 108
101 101 101
95 95 95
88 88 88
79 79 79
68 68 68
57 57 57
51 51 51
47 47 47
55 55 55
38 38 38
30 30 30
37 37 37
35 35 35
30 30 30
100 100 100
93 93 93
103 103 103
157 157 157
210 210 210
166 166 166
174 174 174
212 212 212
204 204 204
111 111 111
105 105 105
62 62 62
93 93 93
134 134 134
174 174 174
180 180 180
165 165 165
176 176 176
109 109 109
100 100 100
50 50 50
48 48 48
58 58 58
72 72 72
26 26 26
27 27 27
32 32 32
133 133 133
126 126 126
90 90 90
64 64 64
54 54 54
47 47 47
42 42 42
33 33 33
30 30 30
38 38 38
47 47 47
46 46 46
44 44 44
48 48 48
52 52 52
52 52 52
107 107 107
15 15 15
10 10 10
14 14 14
49 49 49
54 54 54
78 78 78
84 84 84
102 102 102
188 188 188
187 187 187
186 186 186
183 183 183
137 137 137
105 105 105
111 111 111
85 85 85
81 81 81
111 111 111
148 148 148
182 182 182
165 165 165
126 126 126
63 63 63
55 55 55
34 34 34
52 52 52
51 51 51
12 12 12
11 11 11
14 14 14
46 46 46
161 161 161
134 134 134
47 47 47
36 36 36
34 34 34
46 46 46
51 51 51
48 48 48
51 51 51
58 58 58
66 66 66
69 69 69
68 68 68
68 68 68
68 68 68
79 79 79
67 67 67
34 34 34
34 34 34
3 3 3
4 4 4
4 4 4
10 10 10
48 48 48
35 35 35
147 147 147
141 141 141
136 136 136
136 136 136
105 105 105
104 104 104
88 88 88
94 94 94
89 89 89
100 100 100
132 132 132
170 170 170
91 91 91
19 19 19
44 44 44
45 45 45
31 31 31
51 51 51
47 47 47
39 39 39
15 15 15
13 13 13
29 29 29
123 123 123
200 200 200
36 36 36
41 41 41
50 50 50
57 57 57
60 60 60
64 64 64
72 72 72
77 77 77
84 84 84
87 87 87
85 85 85
85 85 85
83 83 83
119 119 119
43 43 43
5 5 5
4 4 4
4 4 4
4 4 4
4 4 4
8 8 8
9 9 9
53 53 53
86 86 86
96 96 96
89 89 89
116 116 116
101 101 101
93 93 93
65 65 65
74 74 74
101 101 101
91 91 91
92 92 92
182 182 182
73 73 73
22 22 22
26 26 26
41 41 41
65 65 65
57 57 57
27 27 27
22 22 22
9 9 9
6 6 6
32 32 32
84 84 84
103 103 103
54 54 54
48 48 48
54 54 54
59 59 59
60 60 60
74 74 74
87 87 87
91 91 91
93 93 93
95 95 95
92 92 92
91 91 91
89 89 89
60 60 60
92 92 92
27 27 27
7 7 7
6 6 6
5 5 5
3 3 3
5 5 5
8 8 8
31 31 31
2 2 2
47 47 47
90 90 90
113 113 113
96 96 96
88 88 88
69 69 69
40 40 40
74 74 74
96 96 96
96 96 96
162 162 162
128 128 128
30 30 30
54 54 54
5 5 5
22 22 22
76 76 76
38 38 38
22 22 22
31 31 31
23 23 23
88 88 88
134 134 134
74 74 74
68 68 68
59 59 59
56 56 56
58 58 58
65 65 65
79 79 79
92 92 92
97 97 97
97 97 97
97 97 97
95 95 95
94 94 94
93 93 93
17 17 17
74 74 74
108 108 108
44 44 44
7 7 7
5 5 5
4 4 4
3 3 3
4 4 4
5 5 5
33 33 33
88 88 88
131 131 131
111 111 111
89 89 89
80 80 80
64 64 64
35 35 35
69 69 69
83 83 83
81 81 81
102 102 102
121 121 121
97 97 97
10 10 10
42 42 42
65 65 65
146 146 146
133 133 133
36 36 36
38 38 38
32 32 32
131 131 131
94 94 94
77 77 77
73 73 73
63 63 63
60 60 60
61 61 61
70 70 70
84 84 84
95 95 95
98 98 98
98 98 98
97 97 97
95 95 95
95 95 95
92 92 92
66 66 66
22 22 22
78 78 78
79 79 79
100 100 100
6 6 6
5 5 5
5 5 5
3 3 3
3 3 3
12 12 12
49 49 49
125 125 125
102 102 102
76 76 76
73 73 73
53 53 53
31 31 31
74 74 74
81 81 81
96 96 96
101 101 101
113 113 113
116 116 116
70 70 70
17 17 17
32 32 32
150 150 150
170 170 170
175 175 175
120 120 120
124 124 124
169 169 169
122 122 122
78 78 78
59 59 59
57 57 57
62 62 62
67 67 67
77 77 77
89 89 89
94 94 94
96 96 96
97 97 97
96 96 96
96 96 96
93 93 93
91 91 91
15 15 15
33 33 33
43 43 43
66 66 66
83 83 83
89 89 89
119 119 119
5 5 5
5 5 5
4 4 4
27 27 27
91 91 91
99 99 99
93 93 93
67 67 67
61 61 61
41 41 41
30 30 30
67 67 67
72 72 72
86 86 86
99 99 99
115 115 115
112 112 112
115 115 115
68 68 68
41 41 41
31 31 31
39 39 39
37 37 37
27 27 27
23 23 23
30 30 30
171 171 171
76 76 76
57 57 57
51 51 51
59 59 59
70 70 70
83 83 83
90 90 90
92 92 92
92 92 92
93 93 93
94 94 94
98 98 98
100 100 100
101 101 101
7 7 7
23 23 23
18 18 18
68 68 68
113 113 113
103 103 103
112 112 112
155 155 155
102 102 102
20 20 20
36 36 36
72 72 72
88 88 88
102 102 102
61 61 61
30 30 30
44 44 44
31 31 31
60 60 60
71 71 71
79 79 79
87 87 87
101 101 101
103 103 103
116 116 116
127 127 127
117 117 117
124 124 124
95 95 95
38 38 38
31 31 31
39 39 39
179 179 179
111 111 111
75 75 75
78 78 78
85 85 85
87 87 87
97 97 97
110 110 110
119 119 119
122 122 122
123 123 123
124 124 124
128 128 128
130 130 130
132 132 132
133 133 133
11 11 11
6 6 6
60 60 60
50 50 50
105 105 105
109 109 109
161 161 161
146 146 146
150 150 150
96 96 96
98 98 98
96 96 96
92 92 92
95 95 95
86 86 86
24 24 24
40 40 40
36 36 36
46 46 46
65 65 65
78 78 78
76 76 76
69 69 69
81 81 81
84 84 84
85 85 85
122 122 122
140 140 140
130 130 130
97 97 97
85 85 85
139 139 139
135 135 135
107 107 107
122 122 122
131 131 131
134 134 134
134 134 134
135 135 135
140 140 140
145 145 145
148 148 148
148 148 148
150 150 150
152 152 152
154 154 154
153 153 153
152 152 152
