P3
36 27
255
32 32 32
31 31 31
31 31 31
32 32 32
32 32 32
31 31 31
31 31 31
33 33 33
49 49 49
85 85 85
60 60 60
39 39 39
35 35 35
35 35 35
35 35 35
36 36 36
35 35 35
35 35 35
34 34 34
36 36 36
37 37 37
39 39 39
39 39 39
40 40 40
43 43 43
46 46 46
49 49 49
48 48 48
7 7 7
53 53 53
52 52 52
55 55 55
57 57 57
59 59 59
60 60 60
61 61 61
46 46 46
46 46 46
47 47 47
47 47 47
47 47 47
48 48 48
9 9 9
53 53 53
80 80 80
103 103 103
74 74 74
58 58 58
50 50 50
47 47 47
47 47 47
45 45 45
44 44 44
44 44 44
44 44 44
44 44 44
44 44 44
44 44 44
44 44 44
44 44 44
44 44 44
45 45 45
46 46 46
10 10 10
18 18 18
48 48 48
49 49 49
50 50 50
52 52 52
52 52 52
52 52 52
55 55 55
41 41 41
42 42 42
43 43 43
44 44 44
46 46 46
13 13 13
40 40 40
25 25 25
19 19 19
134 134 134
70 70 70
60 60 60
59 59 59
57 57 57
57 57 57
58 58 58
58 58 58
60 60 60
64 64 64
65 65 65
67 67 67
68 68 68
69 69 69
69 69 69
70 70 70
74 74 74
22 22 22
44 44 44
42 42 42
73 73 73
77 77 77
78 78 78
77 77 77
79 79 79
82 82 82
84 84 84
21 21 21
23 23 23
23 23 23
23 23 23
23 23 23
13 13 13
120 120 120
49 49 49
21 21 21
20 20 20
58 58 58
39 39 39
40 40 40
41 41 41
42 42 42
45 45 45
45 45 45
48 48 48
51 51 51
53 53 53
54 54 54
54 54 54
55 55 55
56 56 56
58 58 58
55 55 55
6 6 6
138 138 138
54 54 54
55 55 55
58 58 58
60 60 60
61 61 61
61 61 61
63 63 63
64 64 64
31 31 31
26 26 26
23 23 23
20 20 20
21 21 21
22 22 22
146 146 146
92 92 92
37 37 37
16 16 16
39 39 39
26 26 26
26 26 26
26 26 26
26 26 26
29 29 29
28 28 28
30 30 30
31 31 31
32 32 32
32 32 32
31 31 31
32 32 32
33 33 33
32 32 32
11 11 11
51 51 51
134 134 134
90 90 90
61 61 61
47 47 47
52 52 52
56 56 56
60 60 60
64 64 64
67 67 67
63 63 63
61 61 61
58 58 58
54 54 54
50 50 50
47 47 47
144 144 144
101 101 101
80 80 80
50 50 50
4 4 4
41 41 41
37 37 37
35 35 35
42 42 42
34 34 34
37 37 37
44 44 44
37 37 37
43 43 43
64 64 64
55 55 55
53 53 53
53 53 53
22 22 22
23 23 23
33 33 33
96 96 96
124 124 124
112 112 112
106 106 106
116 116 116
122 122 122
131 131 131
133 133 133
133 133 133
65 65 65
65 65 65
67 67 67
67 67 67
67 67 67
66 66 66
89 89 89
117 117 117
52 52 52
75 75 75
28 28 28
10 10 10
33 33 33
118 118 118
192 192 192
173 173 173
206 206 206
186 186 186
124 124 124
208 208 208
206 206 206
196 196 196
187 187 187
52 52 52
12 12 12
40 40 40
43 43 43
36 36 36
84 84 84
133 133 133
110 110 110
112 112 112
113 113 113
117 117 117
119 119 119
125 125 125
38 38 38
41 41 41
42 42 42
45 45 45
46 46 46
49 49 49
75 75 75
126 126 126
28 28 28
113 113 113
83 83 83
15 15 15
30 30 30
35 35 35
81 81 81
147 147 147
195 195 195
197 197 197
214 214 214
176 176 176
196 196 196
183 183 183
127 127 127
80 80 80
18 18 18
43 43 43
24 24 24
44 44 44
68 68 68
60 60 60
68 68 68
71 71 71
70 70 70
73 73 73
81 81 81
91 91 91
25 25 25
26 26 26
28 28 28
29 29 29
29 29 29
30 30 30
31 31 31
110 110 110
117 117 117
81 81 81
88 88 88
43 43 43
98 98 98
39 39 39
111 111 111
178 178 178
177 177 177
124 124 124
144 144 144
133 133 133
174 174 174
153 153 153
170 170 170
132 132 132
114 114 114
84 84 84
17 17 17
63 63 63
102 102 102
88 88 88
61 61 61
60 60 60
60 60 60
65 65 65
69 69 69
74 74 74
53 53 53
54 54 54
56 56 56
57 57 57
58 58 58
60 60 60
69 69 69
52 52 52
19 19 19
68 68 68
72 72 72
114 114 114
154 154 154
136 136 136
152 152 152
107 107 107
84 84 84
53 53 53
47 47 47
90 90 90
87 87 87
54 54 54
77 77 77
147 147 147
123 123 123
125 125 125
134 134 134
121 121 121
90 90 90
65 65 65
46 46 46
47 47 47
48 48 48
51 51 51
56 56 56
61 61 61
65 65 65
66 66 66
69 69 69
71 71 71
74 74 74
83 83 83
96 96 96
8 8 8
55 55 55
114 114 114
137 137 137
172 172 172
148 148 148
124 124 124
82 82 82
58 58 58
35 35 35
73 73 73
17 17 17
25 25 25
72 72 72
46 46 46
41 41 41
51 51 51
78 78 78
100 100 100
160 160 160
181 181 181
151 151 151
60 60 60
33 33 33
33 33 33
33 33 33
35 35 35
38 38 38
40 40 40
61 61 61
61 61 61
62 62 62
63 63 63
65 65 65
68 68 68
76 76 76
0 0 0
74 74 74
165 165 165
158 158 158
142 142 142
100 100 100
77 77 77
60 60 60
31 31 31
21 21 21
10 10 10
7 7 7
7 7 7
13 13 13
1 1 1
37 37 37
50 50 50
44 44 44
62 62 62
137 137 137
141 141 141
104 104 104
59 59 59
45 45 45
36 36 36
36 36 36
35 35 35
34 34 34
34 34 34
55 55 55
55 55 55
56 56 56
57 57 57
60 60 60
64 64 64
98 98 98
5 5 5
15 15 15
135 135 135
114 114 114
62 62 62
62 62 62
75 75 75
37 37 37
10 10 10
19 19 19
4 4 4
6 6 6
112 112 112
78 78 78
7 7 7
21 21 21
29 29 29
51 51 51
32 32 32
102 102 102
98 98 98
118 118 118
129 129 129
123 123 123
126 126 126
93 93 93
77 77 77
64 64 64
62 62 62
36 36 36
38 38 38
39 39 39
39 39 39
44 44 44
52 52 52
174 174 174
2 2 2
80 80 80
133 133 133
47 47 47
42 42 42
47 47 47
33 33 33
35 35 35
7 7 7
1 1 1
3 3 3
4 4 4
204 204 204
135 135 135
74 74 74
9 9 9
4 4 4
23 23 23
39 39 39
54 54 54
98 98 98
68 68 68
86 86 86
153 153 153
197 197 197
129 129 129
123 123 123
119 119 119
119 119 119
21 21 21
21 21 21
21 21 21
25 25 25
99 99 99
204 204 204
75 75 75
44 44 44
129 129 129
94 94 94
28 28 28
10 10 10
27 27 27
33 33 33
6 6 6
30 30 30
3 3 3
1 1 1
34 34 34
223 223 223
225 225 225
29 29 29
4 4 4
22 22 22
31 31 31
34 34 34
113 113 113
30 30 30
8 8 8
49 49 49
150 150 150
201 201 201
116 116 116
87 87 87
81 81 81
90 90 90
32 32 32
26 26 26
24 24 24
32 32 32
155 155 155
186 186 186
148 148 148
112 112 112
95 95 95
43 43 43
0 0 0
29 29 29
87 87 87
151 151 151
17 17 17
145 145 145
7 7 7
6 6 6
48 48 48
235 235 235
234 234 234
88 88 88
25 25 25
187 187 187
102 102 102
41 41 41
194 194 194
44 44 44
44 44 44
41 41 41
141 141 141
200 200 200
76 76 76
51 51 51
47 47 47
52 52 52
62 62 62
58 58 58
55 55 55
54 54 54
189 189 189
187 187 187
174 174 174
114 114 114
87 87 87
23 23 23
28 28 28
34 34 34
33 33 33
62 62 62
179 179 179
204 204 204
34 34 34
11 11 11
107 107 107
216 216 216
226 226 226
209 209 209
25 25 25
73 73 73
196 196 196
79 79 79
85 85 85
36 36 36
37 37 37
58 58 58
143 143 143
183 183 183
187 187 187
74 74 74
58 58 58
59 59 59
62 62 62
64 64 64
66 66 66
68 68 68
150 150 150
178 178 178
182 182 182
176 176 176
117 117 117
101 101 101
4 4 4
13 13 13
20 20 20
10 10 10
18 18 18
13 13 13
50 50 50
29 29 29
218 218 218
212 212 212
215 215 215
214 214 214
80 80 80
84 84 84
15 15 15
17 17 17
21 21 21
36 36 36
58 58 58
112 112 112
169 169 169
181 181 181
210 210 210
167 167 167
139 139 139
142 142 142
35 35 35
39 39 39
87 87 87
46 46 46
107 107 107
188 188 188
173 173 173
148 148 148
134 134 134
59 59 59
41 41 41
6 6 6
7 7 7
17 17 17
16 16 16
61 61 61
167 167 167
214 214 214
95 95 95
11 11 11
137 137 137
87 87 87
217 217 217
175 175 175
61 61 61
22 22 22
24 24 24
35 35 35
110 110 110
74 74 74
175 175 175
197 197 197
204 204 204
121 121 121
119 119 119
128 128 128
30 30 30
34 34 34
33 33 33
67 67 67
74 74 74
109 109 109
190 190 190
164 164 164
144 144 144
91 91 91
68 68 68
55 55 55
20 20 20
91 91 91
127 127 127
195 195 195
228 228 228
225 225 225
221 221 221
210 210 210
192 192 192
213 213 213
226 226 226
224 224 224
218 218 218
160 160 160
65 65 65
68 68 68
124 124 124
125 125 125
165 165 165
205 205 205
210 210 210
152 152 152
102 102 102
94 94 94
55 55 55
57 57 57
59 59 59
70 70 70
154 154 154
182 182 182
171 171 171
175 175 175
164 164 164
83 83 83
98 98 98
49 49 49
116 116 116
128 128 128
183 183 183
216 216 216
218 218 218
219 219 219
196 196 196
184 184 184
200 200 200
143 143 143
212 212 212
222 222 222
220 220 220
204 204 204
97 97 97
146 146 146
158 158 158
164 164 164
194 194 194
200 200 200
201 201 201
121 121 121
76 76 76
81 81 81
65 65 65
74 74 74
71 71 71
107 107 107
181 181 181
196 196 196
163 163 163
183 183 183
170 170 170
154 154 154
141 141 141
126 126 126
156 156 156
124 124 124
122 122 122
209 209 209
212 212 212
203 203 203
196 196 196
203 203 203
195 195 195
202 202 202
208 208 208
209 209 209
219 219 219
209 209 209
175 175 175
124 124 124
167 167 167
159 159 159
191 191 191
205 205 205
190 190 190
100 100 100
54 54 54
58 58 58
79 79 79
61 61 61
67 67 67
148 148 148
175 175 175
195 195 195
185 185 185
108 108 108
157 157 157
196 196 196
198 198 198
180 180 180
180 180 180
120 120 120
146 146 146
168 168 168
200 200 200
207 207 207
220 220 220
225 225 225
216 216 216
220 220 220
204 204 204
191 191 191
210 210 210
160 160 160
153 153 153
173 173 173
189 189 189
187 187 187
203 203 203
206 206 206
162 162 162
44 44 44
33 33 33
34 34 34
44 44 44
65 65 65
171 171 171
197 197 197
194 194 194
202 202 202
211 211 211
196 196 196
140 140 140
193 193 193
186 186 186
212 212 212
210 210 210
199 199 199
159 159 159
202 202 202
198 198 198
216 216 216
206 206 206
215 215 215
210 210 210
214 214 214
208 208 208
206 206 206
194 194 194
177 177 177
195 195 195
205 205 205
198 198 198
186 186 186
205 205 205
211 211 211
221 221 221
225 225 225
194 194 194
49 49 49
51 51 51
97 97 97
180 180 180
171 171 171
156 156 156
193 193 193
206 206 206
216 216 216
221 221 221
151 151 151
199 199 199
83 83 83
220 220 220
224 224 224
225 225 225
212 212 212
221 221 221
224 224 224
226 226 226
212 212 212
218 218 218
210 210 210
215 215 215
216 216 216
226 226 226
213 213 213
214 214 214
210 210 210
206 206 206
209 209 209
212 212 212
219 219 219
217 217 217
224 224 224
206 206 206
143 143 143
35 35 35
179 179 179
199 199 199
189 189 189
205 205 205
196 196 196
197 197 197
213 213 213
217 217 217
203 203 203
173 173 173
143 143 143
162 162 162
198 198 198
223 223 223
219 219 219
218 218 218
218 218 218
138 138 138
210 210 210
215 215 215
219 219 219
219 219 219
234 234 234
231 231 231
219 219 219
217 217 217
203 203 203
210 210 210
214 214 214
224 224 224
223 223 223
213 213 213
222 222 222
222 222 222
198 198 198
90 90 90
179 179 179
171 171 171
188 188 188
191 191 191
187 187 187
180 180 180
139 139 139
185 185 185
207 207 207
207 207 207
213 213 213
217 217 217
201 201 201
210 210 210
189 189 189
193 193 193
187 187 187
63 63 63
192 192 192
214 214 214
219 219 219
204 204 204
203 203 203
208 208 208
210 210 210
211 211 211
212 212 212
219 219 219
209 209 209
223 223 223
210 210 210
199 199 199
204 204 204
213 213 213
214 214 214
