P3
50 52
255
11 11 11
68 68 68
144 144 144
155 155 155
167 167 167
151 151 151
147 147 147
88 88 88
145 145 145
166 166 166
172 172 172
114 114 114
136 136 136
183 183 183
180 180 180
179 179 179
176 176 176
167 167 167
168 168 168
166 166 166
186 186 186
113 113 113
0 0 0
136 136 136
173 173 173
177 177 177
166 166 166
101 101 101
7 7 7
45 45 45
64 64 64
104 104 104
106 106 106
77 77 77
60 60 60
52 52 52
130 130 130
165 165 165
35 35 35
45 45 45
169 169 169
191 191 191
209 209 209
203 203 203
186 186 186
129 129 129
86 86 86
115 115 115
170 170 170
191 191 191
51 51 51
150 150 150
166 166 166
144 144 144
146 146 146
158 158 158
159 159 159
153 153 153
161 161 161
165 165 165
160 160 160
164 164 164
175 175 175
103 103 103
10 10 10
72 72 72
136 136 136
157 157 157
171 171 171
177 177 177
151 151 151
93 93 93
115 115 115
191 191 191
188 188 188
182 182 182
158 158 158
132 132 132
104 104 104
93 93 93
74 74 74
106 106 106
122 122 122
87 87 87
74 74 74
88 88 88
151 151 151
169 169 169
99 99 99
175 175 175
183 183 183
139 139 139
107 107 107
87 87 87
105 105 105
136 136 136
171 171 171
176 176 176
172 172 172
191 191 191
97 97 97
168 168 168
97 97 97
2 2 2
95 95 95
171 171 171
155 155 155
158 158 158
169 169 169
178 178 178
172 172 172
161 161 161
177 177 177
145 145 145
76 76 76
70 70 70
125 125 125
151 151 151
133 133 133
79 79 79
110 110 110
172 172 172
204 204 204
151 151 151
96 96 96
173 173 173
179 179 179
169 169 169
169 169 169
169 169 169
163 163 163
181 181 181
196 196 196
200 200 200
171 171 171
100 100 100
77 77 77
147 147 147
197 197 197
156 156 156
20 20 20
0 0 0
30 30 30
128 128 128
179 179 179
183 183 183
185 185 185
180 180 180
187 187 187
184 184 184
138 138 138
164 164 164
30 30 30
37 37 37
157 157 157
153 153 153
156 156 156
166 166 166
158 158 158
109 109 109
37 37 37
13 13 13
51 51 51
169 169 169
181 181 181
195 195 195
126 126 126
44 44 44
66 66 66
139 139 139
180 180 180
181 181 181
168 168 168
9 9 9
45 45 45
184 184 184
125 125 125
44 44 44
50 50 50
92 92 92
150 150 150
157 157 157
128 128 128
94 94 94
16 16 16
1 1 1
0 0 0
17 17 17
172 172 172
133 133 133
59 59 59
133 133 133
181 181 181
153 153 153
122 122 122
110 110 110
116 116 116
102 102 102
74 74 74
40 40 40
151 151 151
167 167 167
121 121 121
151 151 151
174 174 174
151 151 151
130 130 130
102 102 102
119 119 119
95 95 95
60 60 60
23 23 23
16 16 16
155 155 155
138 138 138
22 22 22
38 38 38
111 111 111
76 76 76
36 36 36
151 151 151
150 150 150
64 64 64
90 90 90
177 177 177
192 192 192
122 122 122
73 73 73
111 111 111
85 85 85
62 62 62
29 29 29
30 30 30
73 73 73
125 125 125
145 145 145
137 137 137
139 139 139
165 165 165
181 181 181
182 182 182
116 116 116
26 26 26
1 1 1
10 10 10
74 74 74
122 122 122
141 141 141
111 111 111
93 93 93
154 154 154
157 157 157
173 173 173
137 137 137
55 55 55
62 62 62
111 111 111
140 140 140
168 168 168
179 179 179
173 173 173
165 165 165
167 167 167
180 180 180
53 53 53
54 54 54
176 176 176
174 174 174
175 175 175
58 58 58
123 123 123
122 122 122
139 139 139
188 188 188
137 137 137
118 118 118
180 180 180
179 179 179
171 171 171
175 175 175
157 157 157
108 108 108
146 146 146
188 188 188
179 179 179
174 174 174
186 186 186
183 183 183
161 161 161
164 164 164
175 175 175
39 39 39
1 1 1
68 68 68
160 160 160
194 194 194
192 192 192
197 197 197
202 202 202
196 196 196
54 54 54
147 147 147
175 175 175
70 70 70
42 42 42
150 150 150
165 165 165
157 157 157
138 138 138
73 73 73
142 142 142
149 149 149
90 90 90
125 125 125
83 83 83
64 64 64
157 157 157
110 110 110
142 142 142
74 74 74
104 104 104
176 176 176
159 159 159
97 97 97
1 1 1
46 46 46
175 175 175
75 75 75
28 28 28
120 120 120
166 166 166
158 158 158
147 147 147
177 177 177
188 188 188
173 173 173
103 103 103
25 25 25
104 104 104
167 167 167
176 176 176
156 156 156
148 148 148
187 187 187
194 194 194
179 179 179
177 177 177
175 175 175
185 185 185
187 187 187
122 122 122
167 167 167
162 162 162
156 156 156
144 144 144
166 166 166
181 181 181
197 197 197
129 129 129
0 0 0
39 39 39
21 21 21
0 0 0
41 41 41
90 90 90
51 51 51
152 152 152
139 139 139
170 170 170
73 73 73
13 13 13
154 154 154
129 129 129
59 59 59
104 104 104
161 161 161
165 165 165
114 114 114
31 31 31
9 9 9
76 76 76
154 154 154
148 148 148
145 145 145
112 112 112
34 34 34
0 0 0
1 1 1
127 127 127
170 170 170
171 171 171
180 180 180
163 163 163
34 34 34
30 30 30
65 65 65
108 108 108
148 148 148
175 175 175
181 181 181
162 162 162
128 128 128
139 139 139
166 166 166
44 44 44
13 13 13
72 72 72
86 86 86
96 96 96
28 28 28
1 1 1
84 84 84
115 115 115
136 136 136
19 19 19
32 32 32
158 158 158
124 124 124
174 174 174
43 43 43
11 11 11
156 156 156
157 157 157
159 159 159
174 174 174
146 146 146
158 158 158
178 178 178
178 178 178
146 146 146
71 71 71
46 46 46
86 86 86
68 68 68
55 55 55
59 59 59
86 86 86
149 149 149
167 167 167
169 169 169
165 165 165
173 173 173
170 170 170
119 119 119
72 72 72
31 31 31
7 7 7
14 14 14
30 30 30
46 46 46
44 44 44
1 1 1
98 98 98
170 170 170
145 145 145
101 101 101
111 111 111
59 59 59
104 104 104
131 131 131
6 6 6
66 66 66
178 178 178
148 148 148
90 90 90
15 15 15
107 107 107
135 135 135
153 153 153
59 59 59
70 70 70
116 116 116
132 132 132
159 159 159
141 141 141
57 57 57
162 162 162
117 117 117
179 179 179
180 180 180
153 153 153
132 132 132
160 160 160
161 161 161
176 176 176
188 188 188
178 178 178
57 57 57
121 121 121
168 168 168
157 157 157
153 153 153
90 90 90
178 178 178
127 127 127
131 131 131
156 156 156
108 108 108
79 79 79
50 50 50
26 26 26
66 66 66
147 147 147
169 169 169
178 178 178
157 157 157
163 163 163
158 158 158
159 159 159
152 152 152
94 94 94
52 52 52
82 82 82
24 24 24
102 102 102
123 123 123
165 165 165
157 157 157
155 155 155
171 171 171
85 85 85
71 71 71
74 74 74
93 93 93
51 51 51
77 77 77
200 200 200
114 114 114
91 91 91
185 185 185
162 162 162
186 186 186
183 183 183
163 163 163
144 144 144
106 106 106
46 46 46
78 78 78
157 157 157
33 33 33
85 85 85
163 163 163
5 5 5
119 119 119
129 129 129
16 16 16
110 110 110
180 180 180
177 177 177
172 172 172
151 151 151
175 175 175
165 165 165
114 114 114
162 162 162
143 143 143
133 133 133
150 150 150
158 158 158
130 130 130
103 103 103
58 58 58
31 31 31
60 60 60
66 66 66
97 97 97
165 165 165
159 159 159
168 168 168
141 141 141
73 73 73
90 90 90
106 106 106
89 89 89
70 70 70
79 79 79
154 154 154
186 186 186
58 58 58
41 41 41
90 90 90
79 79 79
60 60 60
49 49 49
56 56 56
89 89 89
129 129 129
185 185 185
89 89 89
0 0 0
129 129 129
200 200 200
47 47 47
25 25 25
181 181 181
125 125 125
11 11 11
116 116 116
170 170 170
165 165 165
174 174 174
136 136 136
40 40 40
41 41 41
147 147 147
153 153 153
28 28 28
42 42 42
128 128 128
143 143 143
101 101 101
98 98 98
23 23 23
45 45 45
81 81 81
68 68 68
126 126 126
172 172 172
178 178 178
118 118 118
73 73 73
69 69 69
75 75 75
91 91 91
84 84 84
78 78 78
71 71 71
83 83 83
74 74 74
44 44 44
35 35 35
34 34 34
14 14 14
65 65 65
151 151 151
152 152 152
157 157 157
149 149 149
18 18 18
90 90 90
176 176 176
190 190 190
123 123 123
3 3 3
149 149 149
176 176 176
126 126 126
48 48 48
162 162 162
164 164 164
95 95 95
52 52 52
112 112 112
116 116 116
94 94 94
106 106 106
80 80 80
22 22 22
37 37 37
131 131 131
125 125 125
114 114 114
79 79 79
28 28 28
63 63 63
70 70 70
95 95 95
162 162 162
165 165 165
89 89 89
72 72 72
62 62 62
65 65 65
72 72 72
66 66 66
79 79 79
79 79 79
63 63 63
67 67 67
82 82 82
68 68 68
66 66 66
83 83 83
155 155 155
144 144 144
140 140 140
160 160 160
74 74 74
101 101 101
192 192 192
183 183 183
178 178 178
169 169 169
42 42 42
136 136 136
177 177 177
178 178 178
89 89 89
87 87 87
178 178 178
65 65 65
135 135 135
107 107 107
72 72 72
68 68 68
77 77 77
95 95 95
110 110 110
134 134 134
140 140 140
86 86 86
119 119 119
124 124 124
19 19 19
53 53 53
70 70 70
65 65 65
133 133 133
136 136 136
71 71 71
68 68 68
63 63 63
67 67 67
81 81 81
65 65 65
62 62 62
68 68 68
65 65 65
49 49 49
61 61 61
58 58 58
62 62 62
101 101 101
152 152 152
152 152 152
172 172 172
135 135 135
117 117 117
177 177 177
119 119 119
149 149 149
185 185 185
191 191 191
89 89 89
105 105 105
197 197 197
164 164 164
152 152 152
35 35 35
127 127 127
135 135 135
83 83 83
71 71 71
76 76 76
71 71 71
74 74 74
73 73 73
81 81 81
106 106 106
128 128 128
67 67 67
68 68 68
114 114 114
64 64 64
24 24 24
73 73 73
69 69 69
72 72 72
95 95 95
69 69 69
44 44 44
51 51 51
71 71 71
93 93 93
73 73 73
66 66 66
62 62 62
67 67 67
54 54 54
48 48 48
82 82 82
56 56 56
94 94 94
160 160 160
148 148 148
106 106 106
108 108 108
194 194 194
61 61 61
0 0 0
5 5 5
64 64 64
169 169 169
99 99 99
28 28 28
166 166 166
172 172 172
189 189 189
45 45 45
28 28 28
77 77 77
68 68 68
75 75 75
83 83 83
84 84 84
61 61 61
71 71 71
84 84 84
80 80 80
112 112 112
82 82 82
73 73 73
83 83 83
127 127 127
25 25 25
71 71 71
135 135 135
105 105 105
60 60 60
57 57 57
62 62 62
54 54 54
56 56 56
85 85 85
63 63 63
50 50 50
62 62 62
67 67 67
68 68 68
58 58 58
79 79 79
60 60 60
95 95 95
195 195 195
155 155 155
109 109 109
153 153 153
85 85 85
71 71 71
114 114 114
77 77 77
24 24 24
97 97 97
149 149 149
33 33 33
82 82 82
147 147 147
141 141 141
66 66 66
58 58 58
75 75 75
76 76 76
85 85 85
82 82 82
81 81 81
74 74 74
77 77 77
86 86 86
85 85 85
34 34 34
58 58 58
89 89 89
67 67 67
64 64 64
115 115 115
130 130 130
154 154 154
162 162 162
119 119 119
50 50 50
67 67 67
76 76 76
66 66 66
76 76 76
84 84 84
65 65 65
66 66 66
66 66 66
68 68 68
64 64 64
46 46 46
59 59 59
83 83 83
123 123 123
146 146 146
157 157 157
100 100 100
9 9 9
97 97 97
128 128 128
134 134 134
91 91 91
31 31 31
185 185 185
202 202 202
199 199 199
191 191 191
187 187 187
203 203 203
204 204 204
79 79 79
87 87 87
93 93 93
75 75 75
79 79 79
88 88 88
79 79 79
76 76 76
87 87 87
36 36 36
36 36 36
94 94 94
53 53 53
90 90 90
143 143 143
135 135 135
113 113 113
139 139 139
156 156 156
63 63 63
40 40 40
51 51 51
64 64 64
101 101 101
84 84 84
74 74 74
62 62 62
54 54 54
76 76 76
80 80 80
75 75 75
62 62 62
80 80 80
137 137 137
101 101 101
68 68 68
81 81 81
41 41 41
123 123 123
131 131 131
103 103 103
83 83 83
24 24 24
82 82 82
94 94 94
99 99 99
93 93 93
83 83 83
95 95 95
109 109 109
74 74 74
88 88 88
97 97 97
91 91 91
81 81 81
83 83 83
73 73 73
65 65 65
71 71 71
79 79 79
66 66 66
65 65 65
48 48 48
126 126 126
152 152 152
146 146 146
133 133 133
140 140 140
145 145 145
88 88 88
42 42 42
51 51 51
69 69 69
110 110 110
72 72 72
72 72 72
76 76 76
67 67 67
80 80 80
86 86 86
75 75 75
57 57 57
92 92 92
150 150 150
136 136 136
144 144 144
113 113 113
42 42 42
128 128 128
125 125 125
132 132 132
89 89 89
16 16 16
58 58 58
60 60 60
71 71 71
78 78 78
56 56 56
66 66 66
69 69 69
82 82 82
100 100 100
92 92 92
75 75 75
87 87 87
90 90 90
88 88 88
75 75 75
83 83 83
83 83 83
74 74 74
66 66 66
55 55 55
112 112 112
164 164 164
129 129 129
131 131 131
111 111 111
111 111 111
129 129 129
91 91 91
53 53 53
72 72 72
105 105 105
76 76 76
80 80 80
79 79 79
76 76 76
82 82 82
84 84 84
53 53 53
66 66 66
87 87 87
118 118 118
123 123 123
116 116 116
133 133 133
77 77 77
95 95 95
117 117 117
117 117 117
34 34 34
37 37 37
86 86 86
91 91 91
87 87 87
108 108 108
103 103 103
72 72 72
73 73 73
84 84 84
90 90 90
84 84 84
78 78 78
85 85 85
96 96 96
83 83 83
56 56 56
65 65 65
69 69 69
71 71 71
60 60 60
66 66 66
83 83 83
110 110 110
142 142 142
111 111 111
112 112 112
151 151 151
144 144 144
133 133 133
68 68 68
56 56 56
116 116 116
79 79 79
76 76 76
81 81 81
79 79 79
66 66 66
49 49 49
68 68 68
71 71 71
100 100 100
128 128 128
97 97 97
89 89 89
96 96 96
92 92 92
125 125 125
138 138 138
115 115 115
81 81 81
78 78 78
82 82 82
82 82 82
77 77 77
93 93 93
83 83 83
74 74 74
72 72 72
89 89 89
90 90 90
80 80 80
83 83 83
87 87 87
91 91 91
71 71 71
55 55 55
80 80 80
78 78 78
63 63 63
76 76 76
62 62 62
81 81 81
79 79 79
99 99 99
110 110 110
125 125 125
157 157 157
142 142 142
141 141 141
128 128 128
153 153 153
163 163 163
124 124 124
162 162 162
122 122 122
65 65 65
53 53 53
73 73 73
72 72 72
47 47 47
96 96 96
132 132 132
148 148 148
146 146 146
134 134 134
155 155 155
139 139 139
131 131 131
120 120 120
155 155 155
135 135 135
127 127 127
91 91 91
83 83 83
68 68 68
62 62 62
62 62 62
55 55 55
85 85 85
81 81 81
78 78 78
85 85 85
90 90 90
80 80 80
52 52 52
63 63 63
75 75 75
63 63 63
63 63 63
90 90 90
74 74 74
66 66 66
85 85 85
104 104 104
112 112 112
125 125 125
123 123 123
93 93 93
156 156 156
150 150 150
170 170 170
202 202 202
196 196 196
166 166 166
89 89 89
63 63 63
61 61 61
78 78 78
70 70 70
70 70 70
94 94 94
165 165 165
159 159 159
148 148 148
149 149 149
146 146 146
131 131 131
129 129 129
125 125 125
156 156 156
142 142 142
132 132 132
138 138 138
129 129 129
106 106 106
105 105 105
83 83 83
85 85 85
92 92 92
77 77 77
77 77 77
94 94 94
80 80 80
73 73 73
58 58 58
75 75 75
71 71 71
58 58 58
63 63 63
75 75 75
77 77 77
76 76 76
77 77 77
85 85 85
116 116 116
141 141 141
116 116 116
142 142 142
134 134 134
137 137 137
184 184 184
177 177 177
154 154 154
86 86 86
57 57 57
64 64 64
68 68 68
54 54 54
74 74 74
67 67 67
135 135 135
154 154 154
147 147 147
148 148 148
146 146 146
145 145 145
131 131 131
138 138 138
155 155 155
149 149 149
138 138 138
122 122 122
135 135 135
130 130 130
158 158 158
112 112 112
41 41 41
54 54 54
95 95 95
73 73 73
86 86 86
94 94 94
80 80 80
68 68 68
73 73 73
83 83 83
69 69 69
61 61 61
77 77 77
70 70 70
70 70 70
74 74 74
73 73 73
85 85 85
103 103 103
147 147 147
149 149 149
137 137 137
146 146 146
153 153 153
161 161 161
168 168 168
166 166 166
130 130 130
78 78 78
63 63 63
63 63 63
73 73 73
62 62 62
89 89 89
156 156 156
146 146 146
146 146 146
159 159 159
144 144 144
135 135 135
125 125 125
133 133 133
133 133 133
138 138 138
136 136 136
134 134 134
134 134 134
122 122 122
147 147 147
149 149 149
87 87 87
65 65 65
81 81 81
83 83 83
80 80 80
75 75 75
73 73 73
73 73 73
72 72 72
86 86 86
81 81 81
60 60 60
69 69 69
79 79 79
78 78 78
67 67 67
65 65 65
77 77 77
106 106 106
123 123 123
167 167 167
179 179 179
171 171 171
173 173 173
179 179 179
166 166 166
154 154 154
134 134 134
80 80 80
58 58 58
64 64 64
67 67 67
77 77 77
122 122 122
146 146 146
145 145 145
158 158 158
140 140 140
130 130 130
134 134 134
127 127 127
126 126 126
123 123 123
136 136 136
146 146 146
158 158 158
123 123 123
115 115 115
138 138 138
137 137 137
124 124 124
77 77 77
94 94 94
145 145 145
72 72 72
82 82 82
84 84 84
67 67 67
68 68 68
88 88 88
73 73 73
60 60 60
69 69 69
73 73 73
71 71 71
73 73 73
74 74 74
73 73 73
112 112 112
109 109 109
129 129 129
186 186 186
175 175 175
174 174 174
163 163 163
153 153 153
125 125 125
109 109 109
95 95 95
52 52 52
62 62 62
65 65 65
63 63 63
110 110 110
143 143 143
161 161 161
135 135 135
139 139 139
118 118 118
134 134 134
118 118 118
122 122 122
126 126 126
131 131 131
149 149 149
159 159 159
96 96 96
115 115 115
145 145 145
133 133 133
130 130 130
84 84 84
169 169 169
166 166 166
93 93 93
129 129 129
84 84 84
111 111 111
70 70 70
81 81 81
70 70 70
70 70 70
72 72 72
77 77 77
76 76 76
77 77 77
66 66 66
81 81 81
99 99 99
117 117 117
102 102 102
139 139 139
163 163 163
150 150 150
124 124 124
111 111 111
114 114 114
105 105 105
92 92 92
62 62 62
64 64 64
71 71 71
54 54 54
106 106 106
168 168 168
163 163 163
116 116 116
127 127 127
115 115 115
101 101 101
117 117 117
127 127 127
124 124 124
115 115 115
132 132 132
147 147 147
67 67 67
108 108 108
143 143 143
122 122 122
143 143 143
119 119 119
91 91 91
151 151 151
166 166 166
175 175 175
130 130 130
131 131 131
64 64 64
68 68 68
74 74 74
79 79 79
70 70 70
80 80 80
77 77 77
71 71 71
66 66 66
66 66 66
73 73 73
96 96 96
114 114 114
107 107 107
105 105 105
119 119 119
116 116 116
122 122 122
119 119 119
94 94 94
76 76 76
45 45 45
89 89 89
87 87 87
59 59 59
132 132 132
170 170 170
171 171 171
117 117 117
101 101 101
139 139 139
121 121 121
134 134 134
135 135 135
132 132 132
135 135 135
155 155 155
160 160 160
70 70 70
84 84 84
112 112 112
127 127 127
137 137 137
137 137 137
116 116 116
114 114 114
121 121 121
149 149 149
107 107 107
70 70 70
67 67 67
70 70 70
71 71 71
68 68 68
73 73 73
76 76 76
75 75 75
58 58 58
65 65 65
63 63 63
68 68 68
62 62 62
82 82 82
109 109 109
116 116 116
102 102 102
77 77 77
88 88 88
86 86 86
77 77 77
67 67 67
46 46 46
58 58 58
68 68 68
68 68 68
137 137 137
168 168 168
167 167 167
110 110 110
96 96 96
135 135 135
120 120 120
122 122 122
126 126 126
134 134 134
130 130 130
144 144 144
151 151 151
80 80 80
90 90 90
84 84 84
131 131 131
136 136 136
148 148 148
182 182 182
140 140 140
131 131 131
126 126 126
57 57 57
64 64 64
80 80 80
81 81 81
75 75 75
70 70 70
66 66 66
70 70 70
78 78 78
62 62 62
56 56 56
74 74 74
63 63 63
71 71 71
70 70 70
80 80 80
77 77 77
65 65 65
75 75 75
91 91 91
78 78 78
77 77 77
54 54 54
44 44 44
67 67 67
69 69 69
52 52 52
133 133 133
163 163 163
164 164 164
101 101 101
83 83 83
144 144 144
125 125 125
127 127 127
125 125 125
132 132 132
133 133 133
140 140 140
109 109 109
69 69 69
77 77 77
70 70 70
115 115 115
139 139 139
156 156 156
80 80 80
55 55 55
83 83 83
98 98 98
54 54 54
69 69 69
72 72 72
77 77 77
81 81 81
68 68 68
65 65 65
71 71 71
81 81 81
64 64 64
51 51 51
49 49 49
59 59 59
68 68 68
71 71 71
64 64 64
67 67 67
69 69 69
69 69 69
85 85 85
81 81 81
69 69 69
49 49 49
50 50 50
56 56 56
60 60 60
68 68 68
137 137 137
148 148 148
156 156 156
118 118 118
82 82 82
116 116 116
138 138 138
123 123 123
119 119 119
112 112 112
113 113 113
99 99 99
77 77 77
97 97 97
91 91 91
79 79 79
102 102 102
146 146 146
167 167 167
41 41 41
57 57 57
54 54 54
59 59 59
76 76 76
70 70 70
58 58 58
55 55 55
62 62 62
61 61 61
57 57 57
65 65 65
93 93 93
66 66 66
53 53 53
56 56 56
46 46 46
51 51 51
63 63 63
73 73 73
69 69 69
65 65 65
77 77 77
81 81 81
77 77 77
46 46 46
50 50 50
48 48 48
51 51 51
81 81 81
111 111 111
127 127 127
166 166 166
154 154 154
109 109 109
106 106 106
122 122 122
124 124 124
118 118 118
137 137 137
132 132 132
142 142 142
136 136 136
132 132 132
144 144 144
155 155 155
147 147 147
130 130 130
164 164 164
175 175 175
89 89 89
58 58 58
62 62 62
69 69 69
75 75 75
74 74 74
64 64 64
49 49 49
63 63 63
59 59 59
56 56 56
64 64 64
95 95 95
66 66 66
60 60 60
83 83 83
57 57 57
45 45 45
47 47 47
56 56 56
52 52 52
60 60 60
67 67 67
62 62 62
46 46 46
46 46 46
57 57 57
59 59 59
91 91 91
113 113 113
199 199 199
160 160 160
150 150 150
157 157 157
107 107 107
104 104 104
131 131 131
127 127 127
143 143 143
124 124 124
109 109 109
109 109 109
123 123 123
137 137 137
132 132 132
146 146 146
155 155 155
155 155 155
154 154 154
153 153 153
86 86 86
77 77 77
71 71 71
98 98 98
94 94 94
66 66 66
67 67 67
66 66 66
61 61 61
59 59 59
53 53 53
61 61 61
87 87 87
91 91 91
70 70 70
46 46 46
64 64 64
52 52 52
45 45 45
45 45 45
52 52 52
50 50 50
44 44 44
45 45 45
48 48 48
67 67 67
46 46 46
119 119 119
119 119 119
187 187 187
220 220 220
161 161 161
147 147 147
148 148 148
59 59 59
52 52 52
108 108 108
133 133 133
129 129 129
96 96 96
86 86 86
91 91 91
125 125 125
151 151 151
135 135 135
144 144 144
146 146 146
138 138 138
128 128 128
117 117 117
204 204 204
142 142 142
141 141 141
179 179 179
95 95 95
77 77 77
71 71 71
73 73 73
60 60 60
53 53 53
57 57 57
62 62 62
84 84 84
131 131 131
79 79 79
70 70 70
43 43 43
58 58 58
92 92 92
54 54 54
137 137 137
98 98 98
73 73 73
53 53 53
62 62 62
89 89 89
63 63 63
146 146 146
174 174 174
232 232 232
232 232 232
170 170 170
162 162 162
124 124 124
26 26 26
72 72 72
126 126 126
129 129 129
102 102 102
73 73 73
119 119 119
152 152 152
157 157 157
144 144 144
149 149 149
148 148 148
132 132 132
85 85 85
99 99 99
110 110 110
247 247 247
223 223 223
221 221 221
194 194 194
77 77 77
89 89 89
72 72 72
65 65 65
61 61 61
55 55 55
55 55 55
63 63 63
83 83 83
151 151 151
132 132 132
89 89 89
98 98 98
64 64 64
101 101 101
151 151 151
207 207 207
188 188 188
159 159 159
93 93 93
82 82 82
87 87 87
122 122 122
168 168 168
234 234 234
241 241 241
160 160 160
110 110 110
177 177 177
78 78 78
22 22 22
114 114 114
127 127 127
122 122 122
90 90 90
129 129 129
158 158 158
149 149 149
143 143 143
147 147 147
146 146 146
157 157 157
155 155 155
89 89 89
61 61 61
94 94 94
240 240 240
231 231 231
242 242 242
164 164 164
79 79 79
81 81 81
67 67 67
62 62 62
63 63 63
55 55 55
52 52 52
70 70 70
84 84 84
179 179 179
216 216 216
149 149 149
190 190 190
120 120 120
172 172 172
245 245 245
234 234 234
232 232 232
226 226 226
211 211 211
152 152 152
129 129 129
211 211 211
233 233 233
252 252 252
230 230 230
41 41 41
91 91 91
152 152 152
45 45 45
44 44 44
115 115 115
113 113 113
96 96 96
107 107 107
127 127 127
150 150 150
152 152 152
146 146 146
148 148 148
145 145 145
142 142 142
168 168 168
99 99 99
24 24 24
97 97 97
103 103 103
95 95 95
90 90 90
77 77 77
89 89 89
77 77 77
60 60 60
66 66 66
57 57 57
49 49 49
51 51 51
64 64 64
85 85 85
193 193 193
230 230 230
227 227 227
206 206 206
183 183 183
250 250 250
234 234 234
236 236 236
170 170 170
160 160 160
206 206 206
189 189 189
160 160 160
176 176 176
170 170 170
155 155 155
123 123 123
24 24 24
88 88 88
147 147 147
49 49 49
27 27 27
110 110 110
104 104 104
90 90 90
84 84 84
81 81 81
96 96 96
136 136 136
164 164 164
152 152 152
135 135 135
140 140 140
165 165 165
126 126 126
43 43 43
53 53 53
86 86 86
85 85 85
84 84 84
56 56 56
81 81 81
73 73 73
67 67 67
58 58 58
58 58 58
59 59 59
48 48 48
114 114 114
85 85 85
69 69 69
80 80 80
93 93 93
86 86 86
94 94 94
91 91 91
89 89 89
114 114 114
170 170 170
209 209 209
225 225 225
221 221 221
133 133 133
93 93 93
65 65 65
67 67 67
38 38 38
41 41 41
104 104 104
141 141 141
92 92 92
1 1 1
94 94 94
107 107 107
95 95 95
94 94 94
95 95 95
87 87 87
93 93 93
136 136 136
158 158 158
161 161 161
139 139 139
172 172 172
121 121 121
19 19 19
24 24 24
88 88 88
93 93 93
138 138 138
80 80 80
72 72 72
77 77 77
79 79 79
44 44 44
100 100 100
132 132 132
48 48 48
191 191 191
87 87 87
54 54 54
79 79 79
98 98 98
86 86 86
103 103 103
96 96 96
110 110 110
180 180 180
231 231 231
234 234 234
198 198 198
226 226 226
173 173 173
128 128 128
154 154 154
164 164 164
70 70 70
34 34 34
136 136 136
126 126 126
98 98 98
23 23 23
67 67 67
106 106 106
98 98 98
97 97 97
96 96 96
98 98 98
92 92 92
79 79 79
129 129 129
172 172 172
151 151 151
171 171 171
64 64 64
2 2 2
33 33 33
109 109 109
111 111 111
121 121 121
67 67 67
85 85 85
71 71 71
120 120 120
47 47 47
124 124 124
200 200 200
127 127 127
184 184 184
87 87 87
94 94 94
134 134 134
151 151 151
128 128 128
147 147 147
192 192 192
228 228 228
239 239 239
223 223 223
221 221 221
214 214 214
213 213 213
226 226 226
145 145 145
141 141 141
156 156 156
77 77 77
54 54 54
151 151 151
109 109 109
84 84 84
24 24 24
72 72 72
101 101 101
90 90 90
101 101 101
96 96 96
98 98 98
94 94 94
92 92 92
84 84 84
140 140 140
156 156 156
120 120 120
33 33 33
29 29 29
27 27 27
146 146 146
117 117 117
106 106 106
67 67 67
87 87 87
67 67 67
154 154 154
109 109 109
132 132 132
165 165 165
98 98 98
60 60 60
77 77 77
128 128 128
123 123 123
136 136 136
145 145 145
200 200 200
222 222 222
217 217 217
234 234 234
217 217 217
216 216 216
212 212 212
194 194 194
230 230 230
209 209 209
117 117 117
143 143 143
121 121 121
63 63 63
123 123 123
119 119 119
58 58 58
34 34 34
82 82 82
108 108 108
86 86 86
94 94 94
100 100 100
105 105 105
103 103 103
92 92 92
93 93 93
88 88 88
131 131 131
85 85 85
12 12 12
37 37 37
50 50 50
94 94 94
90 90 90
95 95 95
77 77 77
106 106 106
72 72 72
162 162 162
117 117 117
131 131 131
140 140 140
66 66 66
62 62 62
98 98 98
140 140 140
133 133 133
146 146 146
160 160 160
227 227 227
218 218 218
204 204 204
224 224 224
223 223 223
201 201 201
208 208 208
220 220 220
206 206 206
236 236 236
161 161 161
122 122 122
166 166 166
108 108 108
92 92 92
118 118 118
87 87 87
45 45 45
64 64 64
100 100 100
95 95 95
91 91 91
87 87 87
103 103 103
100 100 100
95 95 95
94 94 94
87 87 87
88 88 88
55 55 55
9 9 9
26 26 26
30 30 30
78 78 78
68 68 68
82 82 82
73 73 73
166 166 166
133 133 133
88 88 88
110 110 110
160 160 160
100 100 100
73 73 73
59 59 59
93 93 93
103 103 103
101 101 101
112 112 112
113 113 113
173 173 173
226 226 226
198 198 198
208 208 208
237 237 237
203 203 203
206 206 206
211 211 211
191 191 191
224 224 224
210 210 210
123 123 123
136 136 136
146 146 146
76 76 76
97 97 97
48 48 48
30 30 30
29 29 29
91 91 91
89 89 89
97 97 97
91 91 91
76 76 76
90 90 90
100 100 100
92 92 92
93 93 93
96 96 96
48 48 48
34 34 34
32 32 32
19 19 19
120 120 120
114 114 114
110 110 110
82 82 82
171 171 171
130 130 130
58 58 58
136 136 136
137 137 137
79 79 79
67 67 67
46 46 46
93 93 93
120 120 120
108 108 108
112 112 112
114 114 114
137 137 137
175 175 175
219 219 219
196 196 196
214 214 214
225 225 225
213 213 213
208 208 208
218 218 218
229 229 229
211 211 211
147 147 147
125 125 125
128 128 128
130 130 130
93 93 93
10 10 10
25 25 25
7 7 7
58 58 58
102 102 102
92 92 92
95 95 95
87 87 87
79 79 79
92 92 92
94 94 94
89 89 89
101 101 101
93 93 93
42 42 42
26 26 26
57 57 57
72 72 72
87 87 87
130 130 130
162 162 162
106 106 106
68 68 68
80 80 80
149 149 149
141 141 141
87 87 87
66 66 66
44 44 44
104 104 104
121 121 121
116 116 116
128 128 128
135 135 135
80 80 80
55 55 55
140 140 140
200 200 200
191 191 191
234 234 234
226 226 226
226 226 226
219 219 219
216 216 216
224 224 224
190 190 190
130 130 130
127 127 127
119 119 119
140 140 140
83 83 83
13 13 13
29 29 29
16 16 16
82 82 82
101 101 101
88 88 88
92 92 92
94 94 94
77 77 77
81 81 81
97 97 97
87 87 87
97 97 97
71 71 71
30 30 30
66 66 66
60 60 60
44 44 44
140 140 140
169 169 169
58 58 58
69 69 69
78 78 78
134 134 134
159 159 159
112 112 112
61 61 61
51 51 51
66 66 66
86 86 86
40 40 40
122 122 122
104 104 104
70 70 70
53 53 53
92 92 92
200 200 200
207 207 207
226 226 226
221 221 221
221 221 221
220 220 220
219 219 219
216 216 216
220 220 220
162 162 162
127 127 127
133 133 133
145 145 145
156 156 156
104 104 104
19 19 19
20 20 20
31 31 31
94 94 94
96 96 96
97 97 97
103 103 103
95 95 95
81 81 81
85 85 85
99 99 99
91 91 91
87 87 87
81 81 81
50 50 50
122 122 122
80 80 80
149 149 149
104 104 104
54 54 54
68 68 68
70 70 70
122 122 122
157 157 157
147 147 147
81 81 81
45 45 45
96 96 96
113 113 113
87 87 87
149 149 149
100 100 100
61 61 61
61 61 61
148 148 148
224 224 224
222 222 222
223 223 223
224 224 224
217 217 217
220 220 220
210 210 210
191 191 191
225 225 225
181 181 181
128 128 128
135 135 135
142 142 142
149 149 149
155 155 155
87 87 87
38 38 38
29 29 29
52 52 52
86 86 86
105 105 105
116 116 116
110 110 110
93 93 93
80 80 80
77 77 77
90 90 90
89 89 89
91 91 91
64 64 64
76 76 76
75 75 75
144 144 144
85 85 85
72 72 72
84 84 84
75 75 75
125 125 125
153 153 153
156 156 156
88 88 88
45 45 45
87 87 87
103 103 103
118 118 118
141 141 141
135 135 135
123 123 123
132 132 132
145 145 145
200 200 200
224 224 224
208 208 208
220 220 220
197 197 197
196 196 196
212 212 212
169 169 169
212 212 212
201 201 201
147 147 147
131 131 131
142 142 142
148 148 148
160 160 160
164 164 164
138 138 138
34 34 34
42 42 42
74 74 74
91 91 91
100 100 100
112 112 112
105 105 105
86 86 86
77 77 77
74 74 74
86 86 86
93 93 93
91 91 91
68 68 68
80 80 80
106 106 106
72 72 72
77 77 77
113 113 113
152 152 152
138 138 138
138 138 138
150 150 150
97 97 97
56 56 56
56 56 56
96 96 96
129 129 129
145 145 145
152 152 152
140 140 140
136 136 136
132 132 132
185 185 185
206 206 206
180 180 180
206 206 206
184 184 184
174 174 174
207 207 207
178 178 178
208 208 208
213 213 213
164 164 164
139 139 139
143 143 143
149 149 149
157 157 157
137 137 137
120 120 120
60 60 60
80 80 80
82 82 82
79 79 79
79 79 79
93 93 93
109 109 109
95 95 95
95 95 95
96 96 96
78 78 78
83 83 83
96 96 96
